<svg width="12" height="14" viewBox="0 0 12 14" fill="none" xmlns="http://www.w3.org/2000/svg">
<g clip-path="url(#clip0_180_350)">
<path d="M6.26527 3.82061H5.30138V6.00386H3.3736V7.09548H5.30138V9.27873H6.26527V7.09548H8.19305V6.00386H6.26527V3.82061ZM5.78333 1.09155C3.12299 1.09155 0.963882 3.53679 0.963882 6.54967C0.963882 9.56255 3.12299 12.0078 5.78333 12.0078C8.44366 12.0078 10.6028 9.56255 10.6028 6.54967C10.6028 3.53679 8.44366 1.09155 5.78333 1.09155ZM5.78333 10.9162C3.65795 10.9162 1.92777 8.9567 1.92777 6.54967C1.92777 4.14264 3.65795 2.18318 5.78333 2.18318C7.9087 2.18318 9.63888 4.14264 9.63888 6.54967C9.63888 8.9567 7.9087 10.9162 5.78333 10.9162Z" fill="#254682"/>
</g>
<defs>
<clipPath id="clip0_180_350">
<rect width="11.5667" height="13.0995" fill="white"/>
</clipPath>
</defs>
</svg>
