<svg width="12" height="14" viewBox="0 0 12 14" fill="none" xmlns="http://www.w3.org/2000/svg">
<g clip-path="url(#clip0_180_306)">
<path d="M6.30138 3.82061H7.26527V4.91223H6.30138V3.82061ZM6.30138 6.00386H7.26527V9.27873H6.30138V6.00386ZM6.78333 1.09155C4.12299 1.09155 1.96388 3.53679 1.96388 6.54967C1.96388 9.56255 4.12299 12.0078 6.78333 12.0078C9.44366 12.0078 11.6028 9.56255 11.6028 6.54967C11.6028 3.53679 9.44366 1.09155 6.78333 1.09155ZM6.78333 10.9162C4.65795 10.9162 2.92777 8.9567 2.92777 6.54967C2.92777 4.14264 4.65795 2.18318 6.78333 2.18318C8.9087 2.18318 10.6389 4.14264 10.6389 6.54967C10.6389 8.9567 8.9087 10.9162 6.78333 10.9162Z" fill="#254682"/>
</g>
<defs>
<clipPath id="clip0_180_306">
<rect width="11.5667" height="13.0995" fill="white"/>
</clipPath>
</defs>
</svg>
