<svg width="12" height="14" viewBox="0 0 12 14" fill="none" xmlns="http://www.w3.org/2000/svg">
<g clip-path="url(#clip0_180_347)">
<path d="M5.30137 3.82061H6.26526V4.91223H5.30137V3.82061ZM5.30137 6.00386H6.26526V9.27873H5.30137V6.00386ZM5.78331 1.09155C3.12298 1.09155 0.963867 3.53679 0.963867 6.54967C0.963867 9.56255 3.12298 12.0078 5.78331 12.0078C8.44365 12.0078 10.6028 9.56255 10.6028 6.54967C10.6028 3.53679 8.44365 1.09155 5.78331 1.09155ZM5.78331 10.9162C3.65794 10.9162 1.92776 8.9567 1.92776 6.54967C1.92776 4.14264 3.65794 2.18318 5.78331 2.18318C7.90869 2.18318 9.63887 4.14264 9.63887 6.54967C9.63887 8.9567 7.90869 10.9162 5.78331 10.9162Z" fill="#254682"/>
</g>
<defs>
<clipPath id="clip0_180_347">
<rect width="11.5667" height="13.0995" fill="white"/>
</clipPath>
</defs>
</svg>
