<svg width="16" height="16" viewBox="0 0 16 16" fill="none" xmlns="http://www.w3.org/2000/svg">
<path d="M10.488 9.56824H9.99805L9.82439 9.40256C10.4322 8.70301 10.7981 7.79483 10.7981 6.80687C10.7981 4.60392 8.99334 2.81824 6.76685 2.81824C4.54036 2.81824 2.7356 4.60392 2.7356 6.80687C2.7356 9.00983 4.54036 10.7955 6.76685 10.7955C7.76536 10.7955 8.68324 10.4335 9.39026 9.8321L9.55771 10.0039V10.4887L12.6587 13.5507L13.5828 12.6364L10.488 9.56824ZM6.76685 9.56824C5.22257 9.56824 3.97598 8.33483 3.97598 6.80687C3.97598 5.27892 5.22257 4.04551 6.76685 4.04551C8.31112 4.04551 9.55771 5.27892 9.55771 6.80687C9.55771 8.33483 8.31112 9.56824 6.76685 9.56824Z" fill="white"/>
</svg>
