<svg width="311" height="44" fill="none" xmlns="http://www.w3.org/2000/svg"><g filter="url('#filter0_d_22_6')" shape-rendering="crispEdges"><path d="M5 6a5 5 0 0 1 5-5h291a5 5 0 0 1 5 5v24a5 5 0 0 1-5 5H10a5 5 0 0 1-5-5V6Z" fill="url('#paint0_linear_22_6')"/><path d="M10 .5A5.5 5.5 0 0 0 4.5 6v24a5.5 5.5 0 0 0 5.5 5.5h291a5.5 5.5 0 0 0 5.5-5.5V6A5.5 5.5 0 0 0 301 .5H10Z" stroke="#D9D9D9"/></g><defs><linearGradient id="paint0_linear_22_6" x1="132.5" y1="101" x2="132.5" y2="135" gradientUnits="userSpaceOnUse"><stop stop-color="#FEFCFA"/><stop offset="1" stop-color="#FEFAFA" stop-opacity="0"/></linearGradient><filter id="filter0_d_22_6" x="0" y="0" width="311" height="44" filterUnits="userSpaceOnUse" color-interpolation-filters="sRGB"><feFlood flood-opacity="0" result="BackgroundImageFix"/><feColorMatrix in="SourceAlpha" values="0 0 0 0 0 0 0 0 0 0 0 0 0 0 0 0 0 0 127 0" result="hardAlpha"/><feOffset dy="4"/><feGaussianBlur stdDeviation="2"/><feComposite in2="hardAlpha" operator="out"/><feColorMatrix values="0 0 0 0 0 0 0 0 0 0 0 0 0 0 0 0 0 0 0.25 0"/><feBlend in2="BackgroundImageFix" result="effect1_dropShadow_22_6"/><feBlend in="SourceGraphic" in2="effect1_dropShadow_22_6" result="shape"/></filter></defs></svg>